<svg width="106" height="107" viewBox="0 0 106 107" fill="none" xmlns="http://www.w3.org/2000/svg">
<path d="M106 53.5C106 39.3109 100.416 25.703 90.4767 15.6698C80.5372 5.63659 67.0565 1.07125e-06 53 0C38.9435 -1.07125e-06 25.4628 5.63659 15.5233 15.6698C5.58392 25.703 2.12247e-06 39.3109 0 53.5L53 53.5H106Z" fill="#49BFFF"/>
<path d="M73.984 17.3606C80.9245 24.4275 84.3947 27.9609 83.9748 29.6002C83.7845 30.3427 83.3174 30.9842 82.6691 31.3931C81.2378 32.2959 76.8099 30.0774 67.9541 25.6405C65.8253 24.574 64.7609 24.0407 64.3131 23.164C64.0995 22.7458 63.9871 22.2832 63.9849 21.8136C63.9802 20.8292 64.6811 19.8668 66.0828 17.9421C67.4845 16.0174 68.1853 15.055 69.1236 14.7573C69.5713 14.6153 70.046 14.5803 70.5097 14.6553C71.4815 14.8124 72.3157 15.6618 73.984 17.3606Z" fill="#FFE6AC"/>
</svg>
