<svg width="88" height="84" viewBox="0 0 88 84" fill="none" xmlns="http://www.w3.org/2000/svg">
<path d="M50.5022 1.13672C52.5188 1.14539 53.9524 3.10158 53.3538 5.02734L29.6194 81.377C28.7411 84.202 24.7362 84.185 23.8821 81.3525L0.804932 4.80078C0.222999 2.87004 1.67317 0.926947 3.6897 0.935547L50.5022 1.13672ZM52.8176 56.5625C53.9092 54.3018 57.1293 54.3018 58.2209 56.5625L66.4026 73.5068C67.3643 75.4988 65.9134 77.8105 63.7014 77.8105H47.3381C45.1262 77.8105 43.6745 75.4988 44.636 73.5068L52.8176 56.5625ZM74.5354 32.5273C75.5428 30.0172 79.0964 30.0172 80.1038 32.5273L87.2209 50.2666C88.0117 52.2376 86.5604 54.3837 84.4368 54.3838H70.2024C68.0788 54.3836 66.6275 52.2375 67.4182 50.2666L74.5354 32.5273Z" fill="#9E7C61"/>
</svg>
