<svg width="96" height="89" viewBox="0 0 96 89" fill="none" xmlns="http://www.w3.org/2000/svg">
<path d="M52.9407 0.206101C56.3018 0.220546 58.6914 3.48089 57.6937 6.69048L33.3997 84.8389C31.9359 89.5477 25.2615 89.5191 23.8382 84.7979L0.21613 6.44341C-0.75397 3.22549 1.66387 -0.0141351 5.02472 4.63906e-05L52.9407 0.206101ZM56.2737 65.2784C58.0931 61.5106 63.4593 61.5106 65.2786 65.2784L71.8099 78.8057C73.4128 82.1256 70.9946 85.9794 67.3079 85.9795H54.2445C50.5578 85.9795 48.1387 82.1257 49.7415 78.8057L56.2737 65.2784ZM80.5198 39.1319C82.1987 34.9477 88.1223 34.9476 89.8011 39.1319L95.3304 52.9131C96.6483 56.1981 94.2291 59.7752 90.6898 59.7754H79.6312C76.0916 59.7754 73.6726 56.1981 74.9905 52.9131L80.5198 39.1319Z" fill="#930051"/>
</svg>
