<svg width="88" height="84" viewBox="0 0 88 84" fill="none" xmlns="http://www.w3.org/2000/svg">
<path fill-rule="evenodd" clip-rule="evenodd" d="M23.8823 81.3521C24.7363 84.1851 28.7411 84.2022 29.6194 81.377L53.3542 5.02689C53.9529 3.1011 52.519 1.14505 50.5023 1.13626L3.68981 0.935088C1.67315 0.926299 0.222497 2.87015 0.804589 4.8013L23.8823 81.3521ZM74.5354 32.5279C75.5426 30.0171 79.0966 30.0171 80.1039 32.5279L87.2209 50.2666C88.0117 52.2378 86.5604 54.3838 84.4366 54.3838H70.2026C68.0789 54.3838 66.6276 52.2378 67.4184 50.2666L74.5354 32.5279ZM52.818 56.562C53.9097 54.3013 57.1295 54.3013 58.2211 56.562L66.403 73.5064C67.3649 75.4986 65.9136 77.8111 63.7015 77.8111H47.3376C45.1255 77.8111 43.6742 75.4986 44.6361 73.5064L52.818 56.562Z" fill="#92A740"/>
</svg>
