<svg width="90" height="89" viewBox="0 0 90 89" fill="none" xmlns="http://www.w3.org/2000/svg">
<path fill-rule="evenodd" clip-rule="evenodd" d="M26.7678 87.6065C27.0525 88.5508 28.3874 88.5566 28.6802 87.6148L55.1569 2.44483C55.3564 1.80274 54.8785 1.15089 54.2063 1.14796L1.98586 0.923347C1.31365 0.920905 0.830096 1.56837 1.02413 2.21241L26.7678 87.6065ZM77.3916 27.9014C77.7273 27.0645 78.912 27.0645 79.2477 27.9014L89.3221 53.0112C89.5857 53.6685 89.1019 54.3838 88.394 54.3838H68.2453C67.5373 54.3838 67.0536 53.6685 67.3172 53.0112L77.3916 27.9014ZM55.6191 52.832C55.9829 52.0786 57.0562 52.0786 57.4201 52.832L68.7887 76.376C69.1093 77.04 68.6256 77.811 67.8882 77.811H45.1509C44.4136 77.811 43.9298 77.04 44.2504 76.376L55.6191 52.832Z" fill="#BA7600"/>
</svg>
