<svg width="88" height="86" viewBox="0 0 88 86" fill="none" xmlns="http://www.w3.org/2000/svg">
<path fill-rule="evenodd" clip-rule="evenodd" d="M24.8251 84.4795C25.3944 86.3677 28.0643 86.3794 28.6498 84.4956L53.7556 3.73586C54.1547 2.45217 53.1987 1.14797 51.8543 1.14211L2.33784 0.929219C0.993414 0.92336 0.0263119 2.21926 0.414373 3.50686L24.8251 84.4795ZM75.4635 30.2144C76.135 28.5405 78.5043 28.5405 79.1758 30.2144L87.7715 51.6392C88.2987 52.9531 87.3312 54.3838 85.9153 54.3838H68.724C67.3081 54.3838 66.3406 52.9531 66.8678 51.6392L75.4635 30.2144ZM53.7186 54.6973C54.4463 53.19 56.5929 53.19 57.3206 54.6973L67.0959 74.9414C67.7372 76.2691 66.7696 77.8111 65.2949 77.8111H45.7443C44.2696 77.8111 43.302 76.2691 43.9433 74.9414L53.7186 54.6973Z" fill="#9E7C61"/>
</svg>
