<svg width="97" height="89" viewBox="0 0 97 89" fill="none" xmlns="http://www.w3.org/2000/svg">
<path fill-rule="evenodd" clip-rule="evenodd" d="M24.7559 85.2916C26.1792 90.0127 32.8539 90.0413 34.3177 85.3326L58.6118 7.18364C59.6096 3.97392 57.2198 0.713671 53.8587 0.699267L5.94305 0.493456C2.582 0.479052 0.164245 3.71855 1.1344 6.93657L24.7559 85.2916ZM81.4377 39.6253C83.1165 35.441 89.0399 35.441 90.7187 39.6253L96.2478 53.4068C97.5658 56.6917 95.1469 60.2686 91.6074 60.2686H80.549C77.0095 60.2686 74.5906 56.6917 75.9086 53.4068L81.4377 39.6253ZM57.1913 65.7715C59.0106 62.004 64.3771 62.0037 66.1964 65.7715L72.7282 79.2986C74.3314 82.6187 71.9125 86.4727 68.2257 86.4727H55.162C51.4752 86.4727 49.0563 82.6187 50.6595 79.2986L57.1913 65.7715Z" fill="#944300" fill-opacity="0.85"/>
</svg>
