<svg width="86" height="82" viewBox="0 0 86 82" fill="none" xmlns="http://www.w3.org/2000/svg">
<path fill-rule="evenodd" clip-rule="evenodd" d="M21.9396 78.2251C23.0782 82.002 28.4179 82.0249 29.589 78.2579L51.9529 6.31791C52.7511 3.75053 50.8392 1.14213 48.1504 1.13041L4.04179 0.940958C1.35292 0.929239 -0.581287 3.52104 0.194836 6.09574L21.9396 78.2251ZM72.6073 34.8409C73.9503 31.4937 78.689 31.4937 80.032 34.8409L85.6703 48.8941C86.7247 51.5225 84.7896 54.3838 81.958 54.3838H70.6813C67.8497 54.3838 65.9146 51.5225 66.969 48.8941L72.6073 34.8409ZM50.9176 58.4268C52.373 55.4126 56.6661 55.4126 58.1217 58.4268L64.7102 72.0713C65.9927 74.7276 64.0576 77.8111 61.1082 77.8111H47.931C44.9815 77.8111 43.0465 74.7276 44.329 72.0713L50.9176 58.4268Z" fill="#9ADBFF"/>
</svg>
