<svg width="159" height="157" viewBox="0 0 159 157" fill="none" xmlns="http://www.w3.org/2000/svg">
<path d="M88.286 77.6499C85.828 87.6869 71.3856 87.19 69.6863 77.0099L64.0389 43.1774C63.049 37.2473 67.7544 31.8853 73.7667 32.0922L87.5831 32.5676C93.5954 32.7744 97.8867 38.446 96.4549 44.2928L88.286 77.6499Z" fill="#930051" stroke="#FF124D"/>
<path d="M92.5544 88.3472C83.4969 93.6737 73.345 83.1382 79.6175 74.9214L100.215 47.9398C103.814 43.2248 111.024 42.845 115.174 47.1518L124.319 56.6427C128.469 60.9495 127.494 67.8 122.297 70.8565L92.5544 88.3472Z" fill="#930051" stroke="#FF124D"/>
<path d="M75.8421 75.2491C81.1759 84.0822 69.9863 93.4536 61.5534 87.2162L33.787 66.6784C28.9338 63.0886 28.6889 56.1627 33.2793 52.3182L43.4835 43.772C48.0739 39.9275 55.2102 41.0817 58.2798 46.1652L75.8421 75.2491Z" fill="#930051" stroke="#FF124D"/>
<path d="M68.5804 79.9289C70.7496 69.8308 85.1996 69.9477 87.1903 80.0795L93.8064 113.751C94.9661 119.653 90.4165 125.138 84.4007 125.089L70.5753 124.977C64.5596 124.928 60.1074 119.371 61.3711 113.489L68.5804 79.9289Z" fill="#930051" stroke="#FF124D"/>
<path d="M65.2629 69.1208C74.1699 63.5546 84.6013 73.8006 78.563 82.1846L58.7208 109.735C55.2533 114.55 48.0538 115.129 43.7858 110.936L34.359 101.677C30.0909 97.485 30.879 90.6084 35.9939 87.4119L65.2629 69.1208Z" fill="#930051" stroke="#FF124D"/>
<path d="M79.7492 82.7265C74.1676 74.0426 85.1038 64.363 93.7069 70.3725L122.015 90.1462C126.962 93.6022 127.395 100.515 122.913 104.483L112.971 113.282C108.489 117.25 101.325 116.294 98.1149 111.3L79.7492 82.7265Z" fill="#930051" stroke="#FF124D"/>
</svg>
