<svg width="114" height="97" viewBox="0 0 114 97" fill="none" xmlns="http://www.w3.org/2000/svg">
<mask id="path-1-inside-1_133_47" fill="white">
<path fill-rule="evenodd" clip-rule="evenodd" d="M69.2614 74.2507L73.2527 91.7316C73.8275 94.2493 71.9006 96.6454 69.3177 96.6245L41.0849 96.3961C38.502 96.3752 36.6176 93.9483 37.2368 91.4402L43.1468 67.502C43.094 67.0919 43.1119 66.6677 43.2127 66.2422L28.9263 89.5348C27.5621 91.7589 24.3608 92.129 22.4785 90.2801L3.18047 71.325C1.29815 69.4761 1.76607 66.4213 4.12292 65.1721L30.2293 51.3357L2.42964 30.4349C0.409164 28.9159 0.318764 26.0181 2.24161 24.4077L23.7063 6.4306C25.6292 4.82018 28.6165 5.29167 29.9199 7.4113L44.3673 30.9058L40.1082 4.68808C39.7034 2.19638 41.6826 -0.0491136 44.2069 0.0377441L72.7764 1.02074C75.3007 1.1076 77.1065 3.48332 76.516 5.94077L70.879 29.3992L87.0919 8.12592C88.6065 6.13853 91.644 5.9774 93.3923 7.7917L112.651 27.7785C114.399 29.5928 113.988 32.4789 111.797 33.7649L81.5303 51.533L108.554 67.9157C110.827 69.2932 111.125 72.3552 109.156 74.0976L88.7906 92.1231C86.822 93.8655 83.6573 93.3407 82.4015 91.0636L66.529 62.2838L68.222 69.6984L68.9366 70.8605C69.6603 72.0373 69.6822 73.2398 69.2614 74.2507Z"/>
</mask>
<path fill-rule="evenodd" clip-rule="evenodd" d="M69.2614 74.2507L73.2527 91.7316C73.8275 94.2493 71.9006 96.6454 69.3177 96.6245L41.0849 96.3961C38.502 96.3752 36.6176 93.9483 37.2368 91.4402L43.1468 67.502C43.094 67.0919 43.1119 66.6677 43.2127 66.2422L28.9263 89.5348C27.5621 91.7589 24.3608 92.129 22.4785 90.2801L3.18047 71.325C1.29815 69.4761 1.76607 66.4213 4.12292 65.1721L30.2293 51.3357L2.42964 30.4349C0.409164 28.9159 0.318764 26.0181 2.24161 24.4077L23.7063 6.4306C25.6292 4.82018 28.6165 5.29167 29.9199 7.4113L44.3673 30.9058L40.1082 4.68808C39.7034 2.19638 41.6826 -0.0491136 44.2069 0.0377441L72.7764 1.02074C75.3007 1.1076 77.1065 3.48332 76.516 5.94077L70.879 29.3992L87.0919 8.12592C88.6065 6.13853 91.644 5.9774 93.3923 7.7917L112.651 27.7785C114.399 29.5928 113.988 32.4789 111.797 33.7649L81.5303 51.533L108.554 67.9157C110.827 69.2932 111.125 72.3552 109.156 74.0976L88.7906 92.1231C86.822 93.8655 83.6573 93.3407 82.4015 91.0636L66.529 62.2838L68.222 69.6984L68.9366 70.8605C69.6603 72.0373 69.6822 73.2398 69.2614 74.2507Z" fill="#7D0093"/>
<path d="M73.2527 91.7316L74.2276 91.509L74.2276 91.509L73.2527 91.7316ZM69.2614 74.2507L68.3382 73.8664L68.2153 74.1616L68.2865 74.4733L69.2614 74.2507ZM69.3177 96.6245L69.3258 95.6245L69.3258 95.6245L69.3177 96.6245ZM41.0849 96.3961L41.093 95.3961L41.093 95.3961L41.0849 96.3961ZM37.2368 91.4402L38.2077 91.6799L38.2077 91.6799L37.2368 91.4402ZM43.1468 67.502L44.1176 67.7417L44.1625 67.5599L44.1386 67.3743L43.1468 67.502ZM43.2127 66.2422L44.1857 66.4727L42.3602 65.7193L43.2127 66.2422ZM28.9263 89.5348L29.7787 90.0576L29.7787 90.0576L28.9263 89.5348ZM22.4785 90.2801L21.7777 90.9935L21.7777 90.9935L22.4785 90.2801ZM3.18047 71.325L2.47973 72.0384L2.47973 72.0384L3.18047 71.325ZM4.12292 65.1721L3.65463 64.2885L3.65463 64.2885L4.12292 65.1721ZM30.2293 51.3357L30.6976 52.2193L32.0883 51.4822L30.8302 50.5364L30.2293 51.3357ZM2.42964 30.4349L1.8287 31.2342L1.8287 31.2342L2.42964 30.4349ZM2.24161 24.4077L1.59954 23.6411L1.59954 23.6411L2.24161 24.4077ZM23.7063 6.4306L24.3484 7.19724L24.3484 7.19724L23.7063 6.4306ZM29.9199 7.4113L30.7718 6.88748L30.7718 6.88748L29.9199 7.4113ZM44.3673 30.9058L43.5155 31.4296L45.3544 30.7454L44.3673 30.9058ZM40.1082 4.68808L41.0952 4.52773L41.0952 4.52773L40.1082 4.68808ZM44.2069 0.0377441L44.1726 1.03715L44.2069 0.0377441ZM72.7764 1.02074L72.8107 0.0213344L72.8107 0.0213344L72.7764 1.02074ZM76.516 5.94077L75.5436 5.70713L75.5436 5.70713L76.516 5.94077ZM70.879 29.3992L69.9066 29.1656L71.6743 30.0054L70.879 29.3992ZM87.0919 8.12592L86.2966 7.51976L86.2966 7.51976L87.0919 8.12592ZM93.3923 7.7917L94.1123 7.09782L94.1123 7.09782L93.3923 7.7917ZM112.651 27.7785L111.931 28.4724L111.931 28.4724L112.651 27.7785ZM111.797 33.7649L111.291 32.9025L111.291 32.9025L111.797 33.7649ZM81.5303 51.533L81.0241 50.6706L79.5786 51.5192L81.0119 52.3881L81.5303 51.533ZM108.554 67.9157L108.036 68.7708L108.036 68.7708L108.554 67.9157ZM109.156 74.0976L108.493 73.3488L108.493 73.3488L109.156 74.0976ZM88.7906 92.1231L89.4533 92.8719L89.4533 92.8719L88.7906 92.1231ZM82.4015 91.0636L81.5258 91.5465L81.5258 91.5465L82.4015 91.0636ZM66.529 62.2838L67.4047 61.8008L65.5541 62.5063L66.529 62.2838ZM68.222 69.6984L67.2471 69.921L67.2838 70.0817L67.3701 70.2222L68.222 69.6984ZM68.9366 70.8605L68.0848 71.3843L68.0848 71.3843L68.9366 70.8605ZM74.2276 91.509L70.2363 74.0281L68.2865 74.4733L72.2778 91.9542L74.2276 91.509ZM69.3096 97.6245C72.5377 97.6506 74.9462 94.6562 74.2276 91.509L72.2778 91.9542C72.7089 93.8424 71.2634 95.6402 69.3258 95.6245L69.3096 97.6245ZM41.0768 97.3961L69.3096 97.6245L69.3258 95.6245L41.093 95.3961L41.0768 97.3961ZM36.266 91.2005C35.492 94.3356 37.8477 97.3699 41.0768 97.3961L41.093 95.3961C39.1563 95.3805 37.7432 93.561 38.2077 91.6799L36.266 91.2005ZM42.1759 67.2623L36.266 91.2005L38.2077 91.6799L44.1176 67.7417L42.1759 67.2623ZM42.2396 66.0116C42.1102 66.5579 42.0873 67.1036 42.155 67.6296L44.1386 67.3743C44.1008 67.0803 44.1135 66.7775 44.1857 66.4727L42.2396 66.0116ZM29.7787 90.0576L44.0651 66.765L42.3602 65.7193L28.0738 89.0119L29.7787 90.0576ZM21.7777 90.9935C24.108 93.2823 28.0706 92.8425 29.7787 90.0576L28.0738 89.0119C27.0536 90.6753 24.6136 90.9756 23.1792 89.5667L21.7777 90.9935ZM2.47973 72.0384L21.7777 90.9935L23.1792 89.5667L3.88121 70.6116L2.47973 72.0384ZM3.65463 64.2885C0.715065 65.8465 0.102909 69.7038 2.47973 72.0384L3.88121 70.6116C2.49339 69.2484 2.81708 66.996 4.59122 66.0557L3.65463 64.2885ZM29.761 50.4521L3.65463 64.2885L4.59122 66.0557L30.6976 52.2193L29.761 50.4521ZM1.8287 31.2342L29.6284 52.135L30.8302 50.5364L3.03058 29.6356L1.8287 31.2342ZM1.59954 23.6411C-0.825073 25.6717 -0.698031 29.3345 1.8287 31.2342L3.03058 29.6356C1.51636 28.4972 1.4626 26.3645 2.88369 25.1743L1.59954 23.6411ZM23.0643 5.66396L1.59954 23.6411L2.88369 25.1743L24.3484 7.19724L23.0643 5.66396ZM30.7718 6.88748C29.1438 4.24014 25.4477 3.6678 23.0643 5.66396L24.3484 7.19724C25.8107 5.97255 28.0892 6.3432 29.0681 7.93511L30.7718 6.88748ZM45.2192 30.382L30.7718 6.88748L29.0681 7.93511L43.5155 31.4296L45.2192 30.382ZM39.1211 4.84843L43.3803 31.0661L45.3544 30.7454L41.0952 4.52773L39.1211 4.84843ZM44.2413 -0.961664C41.0878 -1.07017 38.6151 1.73388 39.1211 4.84843L41.0952 4.52773C40.7916 2.65888 42.2773 0.971941 44.1726 1.03715L44.2413 -0.961664ZM72.8107 0.0213344L44.2413 -0.961664L44.1726 1.03715L72.742 2.02015L72.8107 0.0213344ZM77.4883 6.17442C78.2264 3.10254 75.9682 0.129975 72.8107 0.0213344L72.742 2.02015C74.6333 2.08523 75.9865 3.8641 75.5436 5.70713L77.4883 6.17442ZM71.8513 29.6329L77.4883 6.17442L75.5436 5.70713L69.9066 29.1656L71.8513 29.6329ZM86.2966 7.51976L70.0836 28.7931L71.6743 30.0054L87.8873 8.73207L86.2966 7.51976ZM94.1123 7.09782C91.9457 4.84929 88.1887 5.03706 86.2966 7.51976L87.8872 8.73207C89.0244 7.24 91.3423 7.10551 92.6722 8.48557L94.1123 7.09782ZM113.371 27.0846L94.1123 7.09782L92.6722 8.48557L111.931 28.4724L113.371 27.0846ZM112.303 34.6272C115.042 33.0194 115.576 29.3727 113.371 27.0846L111.931 28.4724C113.223 29.8129 112.933 31.9384 111.291 32.9025L112.303 34.6272ZM82.0366 52.3953L112.303 34.6272L111.291 32.9025L81.0241 50.6706L82.0366 52.3953ZM81.0119 52.3881L108.036 68.7708L109.073 67.0606L82.0487 50.6778L81.0119 52.3881ZM108.036 68.7708C109.746 69.8074 109.945 72.0639 108.493 73.3488L109.819 74.8465C112.304 72.6466 111.907 68.779 109.073 67.0606L108.036 68.7708ZM108.493 73.3488L88.1278 91.3743L89.4533 92.8719L109.819 74.8465L108.493 73.3488ZM88.1278 91.3743C86.6279 92.7018 84.2166 92.2842 83.2771 90.5807L81.5258 91.5465C83.098 94.3972 87.016 95.0292 89.4533 92.8719L88.1278 91.3743ZM83.2771 90.5807L67.4047 61.8008L65.6534 62.7667L81.5258 91.5465L83.2771 90.5807ZM69.1969 69.4758L67.504 62.0612L65.5541 62.5063L67.2471 69.921L69.1969 69.4758ZM69.7884 70.3367L69.0738 69.1746L67.3701 70.2222L68.0848 71.3843L69.7884 70.3367ZM70.1846 74.635C70.7271 73.3317 70.6828 71.7911 69.7884 70.3367L68.0848 71.3843C68.6377 72.2836 68.6373 73.1478 68.3382 73.8664L70.1846 74.635Z" fill="#EF12FF" mask="url(#path-1-inside-1_133_47)"/>
</svg>
