<svg width="114" height="97" viewBox="0 0 114 97" fill="none" xmlns="http://www.w3.org/2000/svg">
<path d="M44.2075 0.0375977L72.7768 1.021C75.301 1.1081 77.1065 3.4836 76.5161 5.94092L70.8784 29.3989L87.0922 8.12549C88.6069 6.13857 91.6439 5.97758 93.392 7.7915L112.651 27.7788C114.399 29.5931 113.988 32.4792 111.797 33.7651L81.5278 51.5317L108.554 67.9155C110.826 69.293 111.124 72.3547 109.156 74.0972L88.7905 92.1235C86.8219 93.8655 83.6577 93.3406 82.4018 91.064L66.5268 62.2808L68.2211 69.6968L68.937 70.8608C69.66 72.037 69.6803 73.238 69.2602 74.2485L73.2524 91.7319C73.827 94.2496 71.9006 96.6453 69.3178 96.6245L41.0854 96.396C38.5025 96.3751 36.6175 93.948 37.2368 91.4399L43.1479 67.4937C43.0964 67.086 43.1121 66.6646 43.2123 66.2417L28.9262 89.5347C27.562 91.7588 24.3613 92.1286 22.4789 90.2798L3.18011 71.3247C1.29832 69.4759 1.76619 66.4216 4.1225 65.1724L30.2289 51.3345L2.43011 30.4351C0.409633 28.916 0.318789 26.0181 2.24164 24.4077L23.7065 6.43018C25.6293 4.82004 28.617 5.29211 29.9203 7.41162L44.3657 30.9028L40.1078 4.68799C39.7032 2.19635 41.6831 -0.0492584 44.2075 0.0375977Z" fill="#FF7002"/>
</svg>
