<svg width="99" height="95" viewBox="0 0 99 95" fill="none" xmlns="http://www.w3.org/2000/svg">
<mask id="path-1-inside-1_122_25" fill="white">
<path fill-rule="evenodd" clip-rule="evenodd" d="M63.2134 72.0498L65.297 82.6543C66.5178 88.8672 61.7287 94.6401 55.3963 94.5888L41.5709 94.477C35.2386 94.4258 30.552 88.5762 31.8822 82.384L33.6542 74.1354L30.1413 79.013C26.4913 84.0809 18.913 84.6906 14.4203 80.2777L4.99347 71.0184C0.500758 66.6055 1.33034 59.367 6.71443 56.0023L20.1118 47.6299L4.47647 36.065C-0.632147 32.2864 -0.889873 24.9959 3.9421 20.949L14.1463 12.4028C18.9782 8.35598 26.4901 9.57096 29.7213 14.922L37.0025 26.98L34.5456 12.2612C33.5037 6.01901 38.4568 0.374764 44.7855 0.592519L58.6018 1.0679C64.9306 1.28566 69.4478 7.25575 67.9406 13.4102L65.4209 23.6994L70.802 16.6502C74.5908 11.6871 82.1799 11.2873 86.5482 15.8208L95.6935 25.3116C100.062 29.8451 99.036 37.0562 93.5651 40.2735L79.0674 48.7993L93.3147 58.7514C98.5225 62.3892 98.9784 69.6664 94.2602 73.8425L84.3181 82.6422C79.5999 86.8183 72.0591 85.812 68.6803 80.5553L63.2134 72.0498Z"/>
</mask>
<path fill-rule="evenodd" clip-rule="evenodd" d="M63.2134 72.0498L65.297 82.6543C66.5178 88.8672 61.7287 94.6401 55.3963 94.5888L41.5709 94.477C35.2386 94.4258 30.552 88.5762 31.8822 82.384L33.6542 74.1354L30.1413 79.013C26.4913 84.0809 18.913 84.6906 14.4203 80.2777L4.99347 71.0184C0.500758 66.6055 1.33034 59.367 6.71443 56.0023L20.1118 47.6299L4.47647 36.065C-0.632147 32.2864 -0.889873 24.9959 3.9421 20.949L14.1463 12.4028C18.9782 8.35598 26.4901 9.57096 29.7213 14.922L37.0025 26.98L34.5456 12.2612C33.5037 6.01901 38.4568 0.374764 44.7855 0.592519L58.6018 1.0679C64.9306 1.28566 69.4478 7.25575 67.9406 13.4102L65.4209 23.6994L70.802 16.6502C74.5908 11.6871 82.1799 11.2873 86.5482 15.8208L95.6935 25.3116C100.062 29.8451 99.036 37.0562 93.5651 40.2735L79.0674 48.7993L93.3147 58.7514C98.5225 62.3892 98.9784 69.6664 94.2602 73.8425L84.3181 82.6422C79.5999 86.8183 72.0591 85.812 68.6803 80.5553L63.2134 72.0498Z" fill="#930051" fill-opacity="0.81"/>
<path d="M63.2134 72.0498L64.0546 71.5091L62.2321 72.2426L63.2134 72.0498ZM65.297 82.6543L66.2783 82.4615L66.2783 82.4615L65.297 82.6543ZM55.3963 94.5888L55.4044 93.5889L55.4044 93.5889L55.3963 94.5888ZM41.5709 94.477L41.5628 95.4769L41.5628 95.4769L41.5709 94.477ZM31.8822 82.384L30.9045 82.174L30.9045 82.174L31.8822 82.384ZM33.6542 74.1354L34.6319 74.3455L32.8427 73.551L33.6542 74.1354ZM30.1413 79.013L29.3299 78.4286L29.3299 78.4286L30.1413 79.013ZM14.4203 80.2777L15.121 79.5643L15.121 79.5643L14.4203 80.2777ZM4.99347 71.0184L5.69421 70.305L5.69421 70.305L4.99347 71.0184ZM6.71443 56.0023L6.18447 55.1543L6.18447 55.1543L6.71443 56.0023ZM20.1118 47.6299L20.6418 48.4779L21.8874 47.6994L20.7065 46.8259L20.1118 47.6299ZM4.47647 36.065L5.07114 35.261L5.07114 35.261L4.47647 36.065ZM3.9421 20.949L4.58418 21.7157L4.58418 21.7157L3.9421 20.949ZM14.1463 12.4028L13.5042 11.6362L13.5042 11.6362L14.1463 12.4028ZM29.7213 14.922L28.8653 15.4389L28.8653 15.4389L29.7213 14.922ZM37.0025 26.98L36.1465 27.4969L37.9889 26.8153L37.0025 26.98ZM34.5456 12.2612L33.5593 12.4258L33.5593 12.4258L34.5456 12.2612ZM44.7855 0.592519L44.8199 -0.40689L44.7855 0.592519ZM58.6018 1.0679L58.6362 0.0684953L58.6018 1.0679ZM67.9406 13.4102L66.9693 13.1724L66.9693 13.1724L67.9406 13.4102ZM65.4209 23.6994L64.4496 23.4615L66.2157 24.3061L65.4209 23.6994ZM70.802 16.6502L70.0072 16.0434L70.0072 16.0434L70.802 16.6502ZM86.5482 15.8208L87.2683 15.1269L87.2683 15.1269L86.5482 15.8208ZM95.6935 25.3116L96.4136 24.6178L96.4136 24.6178L95.6935 25.3116ZM93.5651 40.2735L93.0582 39.4115L93.0582 39.4115L93.5651 40.2735ZM79.0674 48.7993L78.5604 47.9373L77.2176 48.727L78.4947 49.6191L79.0674 48.7993ZM93.3147 58.7514L93.8873 57.9316L93.8873 57.9316L93.3147 58.7514ZM94.2602 73.8425L93.5974 73.0937L93.5974 73.0937L94.2602 73.8425ZM84.3181 82.6422L84.9809 83.391L84.9809 83.391L84.3181 82.6422ZM68.6803 80.5553L67.8391 81.096L67.8391 81.096L68.6803 80.5553ZM62.2321 72.2426L64.3158 82.8471L66.2783 82.4615L64.1946 71.857L62.2321 72.2426ZM64.3158 82.8471C65.4145 88.4387 61.104 93.635 55.4044 93.5889L55.3882 95.5888C62.3533 95.6451 67.6211 89.2957 66.2783 82.4615L64.3158 82.8471ZM55.4044 93.5889L41.579 93.477L41.5628 95.4769L55.3882 95.5888L55.4044 93.5889ZM41.579 93.477C35.8804 93.4309 31.6627 88.167 32.8599 82.594L30.9045 82.174C29.4413 88.9854 34.5968 95.4206 41.5628 95.4769L41.579 93.477ZM32.8599 82.594L34.6319 74.3455L32.6765 73.9254L30.9045 82.174L32.8599 82.594ZM32.8427 73.551L29.3299 78.4286L30.9528 79.5974L34.4656 74.7199L32.8427 73.551ZM29.3299 78.4286C26.0437 82.9913 19.1836 83.5547 15.121 79.5643L13.7195 80.9911C18.6423 85.8264 26.9389 85.1705 30.9528 79.5974L29.3299 78.4286ZM15.121 79.5643L5.69421 70.305L4.29273 71.7318L13.7195 80.9911L15.121 79.5643ZM5.69421 70.305C1.67086 66.3531 2.39934 59.8782 7.24438 56.8503L6.18447 55.1543C0.261351 58.8558 -0.669339 66.8579 4.29273 71.7318L5.69421 70.305ZM7.24438 56.8503L20.6418 48.4779L19.5818 46.7818L6.18447 55.1543L7.24438 56.8503ZM20.7065 46.8259L5.07114 35.261L3.8818 36.869L19.5171 48.4338L20.7065 46.8259ZM5.07114 35.261C0.47387 31.8606 0.256864 25.3399 4.58418 21.7157L3.30003 20.1824C-2.03661 24.6519 -1.73817 32.7121 3.8818 36.869L5.07114 35.261ZM4.58418 21.7157L14.7883 13.1695L13.5042 11.6362L3.30002 20.1824L4.58418 21.7157ZM14.7883 13.1695C19.1576 9.51012 25.9563 10.6214 28.8653 15.4389L30.5774 14.4051C27.024 8.5205 18.7988 7.20183 13.5042 11.6362L14.7883 13.1695ZM28.8653 15.4389L36.1465 27.4969L37.8586 26.463L30.5774 14.4051L28.8653 15.4389ZM37.9889 26.8153L35.532 12.0966L33.5593 12.4258L36.0162 27.1446L37.9889 26.8153ZM35.532 12.0966C34.5942 6.47854 39.0532 1.39588 44.7511 1.59193L44.8199 -0.40689C37.8603 -0.646351 32.4131 5.55947 33.5593 12.4258L35.532 12.0966ZM44.7511 1.59193L58.5675 2.06731L58.6362 0.0684953L44.8199 -0.40689L44.7511 1.59193ZM58.5675 2.06731C64.2613 2.26322 68.3258 7.63337 66.9693 13.1724L68.9119 13.6481C70.5698 6.87813 65.5998 0.308095 58.6362 0.0684953L58.5675 2.06731ZM66.9693 13.1724L64.4496 23.4615L66.3922 23.9372L68.9119 13.6481L66.9693 13.1724ZM66.2157 24.3061L71.5969 17.257L70.0072 16.0434L64.626 23.0926L66.2157 24.3061ZM71.5969 17.257C75.008 12.7886 81.878 12.4152 85.8281 16.5146L87.2683 15.1269C82.4817 10.1594 74.1735 10.5856 70.0072 16.0434L71.5969 17.257ZM85.8281 16.5146L94.9734 26.0055L96.4136 24.6178L87.2683 15.1269L85.8281 16.5146ZM94.9734 26.0055C98.8855 30.0654 97.9814 36.5163 93.0582 39.4115L94.072 41.1355C100.091 37.596 101.238 29.6248 96.4136 24.6178L94.9734 26.0055ZM93.0582 39.4115L78.5604 47.9373L79.5743 49.6613L94.072 41.1355L93.0582 39.4115ZM78.4947 49.6191L92.742 59.5712L93.8873 57.9316L79.64 47.9795L78.4947 49.6191ZM92.742 59.5712C97.4285 62.8449 97.8228 69.3538 93.5974 73.0937L94.923 74.5913C100.134 69.9789 99.6165 61.9336 93.8873 57.9316L92.742 59.5712ZM93.5974 73.0937L83.6554 81.8934L84.9809 83.391L94.923 74.5913L93.5974 73.0937ZM83.6554 81.8934C79.3888 85.6697 72.5634 84.7472 69.5215 80.0146L67.8391 81.096C71.5547 86.8768 79.811 87.9669 84.9809 83.391L83.6554 81.8934ZM69.5215 80.0146L64.0546 71.5091L62.3722 72.5905L67.8391 81.096L69.5215 80.0146Z" fill="#FF124D" mask="url(#path-1-inside-1_122_25)"/>
</svg>
