<svg width="114" height="97" viewBox="0 0 114 97" fill="none" xmlns="http://www.w3.org/2000/svg">
<mask id="path-1-inside-1_133_43" fill="white">
<path fill-rule="evenodd" clip-rule="evenodd" d="M68.5421 74.4538L72.5334 91.9347C73.1083 94.4524 71.1813 96.8485 68.5984 96.8276L40.3656 96.5992C37.7827 96.5783 35.8983 94.1514 36.5175 91.6433L42.4275 67.7051C42.3747 67.2951 42.3926 66.8709 42.4934 66.4453L28.207 89.7379C26.8428 91.9621 23.6415 92.3321 21.7592 90.4832L2.4612 71.5281C0.57888 69.6792 1.0468 66.6244 3.40365 65.3752L29.51 51.5388L1.71038 30.6381C-0.310106 29.119 -0.400504 26.2213 1.52234 24.6108L22.9871 6.63372C24.9099 5.0233 27.8973 5.4948 29.2007 7.61442L43.6481 31.1089L39.3889 4.8912C38.9841 2.3995 40.9633 0.154011 43.4877 0.240869L72.0571 1.22387C74.5815 1.31073 76.3872 3.68645 75.7967 6.1439L70.1597 29.6024L86.3726 8.32905C87.8873 6.34166 90.9248 6.18053 92.673 7.99482L111.932 27.9816C113.68 29.7959 113.268 32.682 111.078 33.968L80.8111 51.7361L107.835 68.1188C110.107 69.4963 110.405 72.5584 108.437 74.3008L88.0713 92.3262C86.1027 94.0686 82.938 93.5438 81.6822 91.2667L65.8098 62.4869L67.5027 69.9015L68.2173 71.0636C68.941 72.2405 68.9629 73.4429 68.5421 74.4538Z"/>
</mask>
<path fill-rule="evenodd" clip-rule="evenodd" d="M68.5421 74.4538L72.5334 91.9347C73.1083 94.4524 71.1813 96.8485 68.5984 96.8276L40.3656 96.5992C37.7827 96.5783 35.8983 94.1514 36.5175 91.6433L42.4275 67.7051C42.3747 67.2951 42.3926 66.8709 42.4934 66.4453L28.207 89.7379C26.8428 91.9621 23.6415 92.3321 21.7592 90.4832L2.4612 71.5281C0.57888 69.6792 1.0468 66.6244 3.40365 65.3752L29.51 51.5388L1.71038 30.6381C-0.310106 29.119 -0.400504 26.2213 1.52234 24.6108L22.9871 6.63372C24.9099 5.0233 27.8973 5.4948 29.2007 7.61442L43.6481 31.1089L39.3889 4.8912C38.9841 2.3995 40.9633 0.154011 43.4877 0.240869L72.0571 1.22387C74.5815 1.31073 76.3872 3.68645 75.7967 6.1439L70.1597 29.6024L86.3726 8.32905C87.8873 6.34166 90.9248 6.18053 92.673 7.99482L111.932 27.9816C113.68 29.7959 113.268 32.682 111.078 33.968L80.8111 51.7361L107.835 68.1188C110.107 69.4963 110.405 72.5584 108.437 74.3008L88.0713 92.3262C86.1027 94.0686 82.938 93.5438 81.6822 91.2667L65.8098 62.4869L67.5027 69.9015L68.2173 71.0636C68.941 72.2405 68.9629 73.4429 68.5421 74.4538Z" fill="#930051"/>
<path d="M72.5334 91.9347L73.5083 91.7121L73.5083 91.7121L72.5334 91.9347ZM68.5421 74.4538L67.6189 74.0696L67.496 74.3647L67.5672 74.6764L68.5421 74.4538ZM68.5984 96.8276L68.6065 95.8277L68.6065 95.8277L68.5984 96.8276ZM40.3656 96.5992L40.3737 95.5992L40.3737 95.5992L40.3656 96.5992ZM36.5175 91.6433L37.4884 91.883L37.4884 91.883L36.5175 91.6433ZM42.4275 67.7051L43.3984 67.9448L43.4432 67.7631L43.4193 67.5774L42.4275 67.7051ZM42.4934 66.4453L43.4665 66.6758L41.641 65.9225L42.4934 66.4453ZM28.207 89.7379L29.0594 90.2607L29.0594 90.2607L28.207 89.7379ZM21.7592 90.4832L21.0585 91.1966L21.0585 91.1966L21.7592 90.4832ZM2.4612 71.5281L1.76046 72.2415L1.76046 72.2415L2.4612 71.5281ZM3.40365 65.3752L2.93536 64.4917L2.93536 64.4917L3.40365 65.3752ZM29.51 51.5388L29.9783 52.4224L31.369 51.6854L30.111 50.7395L29.51 51.5388ZM1.71038 30.6381L1.10944 31.4373L1.10944 31.4373L1.71038 30.6381ZM1.52234 24.6108L0.880269 23.8442L0.880269 23.8442L1.52234 24.6108ZM22.9871 6.63372L22.345 5.86708L22.345 5.86708L22.9871 6.63372ZM29.2007 7.61442L30.0525 7.09061L30.0525 7.09061L29.2007 7.61442ZM43.6481 31.1089L42.7962 31.6327L44.6351 30.9485L43.6481 31.1089ZM39.3889 4.8912L38.4018 5.05155L38.4018 5.05155L39.3889 4.8912ZM43.4877 0.240869L43.4533 1.24028L43.4533 1.24028L43.4877 0.240869ZM72.0571 1.22387L72.0915 0.224459L72.0915 0.224459L72.0571 1.22387ZM75.7967 6.1439L74.8244 5.91025L74.8244 5.91025L75.7967 6.1439ZM70.1597 29.6024L69.1874 29.3687L70.955 30.2085L70.1597 29.6024ZM86.3726 8.32905L87.168 8.9352L87.168 8.9352L86.3726 8.32905ZM92.673 7.99482L93.3931 7.30095L93.3931 7.30095L92.673 7.99482ZM111.932 27.9816L111.212 28.6755L111.212 28.6755L111.932 27.9816ZM111.078 33.968L110.572 33.1056L110.572 33.1056L111.078 33.968ZM80.8111 51.7361L80.3048 50.8737L78.8593 51.7223L80.2927 52.5912L80.8111 51.7361ZM107.835 68.1188L108.354 67.2637L108.354 67.2637L107.835 68.1188ZM108.437 74.3008L107.774 73.552L107.774 73.552L108.437 74.3008ZM88.0713 92.3262L88.7341 93.075L88.7341 93.075L88.0713 92.3262ZM81.6822 91.2667L80.8065 91.7497L80.8065 91.7497L81.6822 91.2667ZM65.8098 62.4869L66.6854 62.0039L64.8349 62.7095L65.8098 62.4869ZM67.5027 69.9015L66.5278 70.1241L66.5645 70.2848L66.6509 70.4253L67.5027 69.9015ZM68.2173 71.0636L67.3655 71.5874L67.3655 71.5874L68.2173 71.0636ZM73.5083 91.7121L69.517 74.2312L67.5672 74.6764L71.5585 92.1573L73.5083 91.7121ZM68.5903 97.8276C71.8184 97.8537 74.2269 94.8593 73.5083 91.7121L71.5585 92.1573C71.9896 94.0456 70.5442 95.8433 68.6065 95.8277L68.5903 97.8276ZM40.3575 97.5992L68.5903 97.8276L68.6065 95.8277L40.3737 95.5992L40.3575 97.5992ZM35.5467 91.4036C34.7727 94.5387 37.1284 97.5731 40.3575 97.5992L40.3737 95.5992C38.4371 95.5836 37.024 93.7641 37.4884 91.883L35.5467 91.4036ZM41.4567 67.4654L35.5467 91.4036L37.4884 91.883L43.3984 67.9448L41.4567 67.4654ZM41.5203 66.2148C41.3909 66.7611 41.368 67.3067 41.4357 67.8327L43.4193 67.5774C43.3815 67.2834 43.3943 66.9807 43.4665 66.6758L41.5203 66.2148ZM29.0594 90.2607L43.3458 66.9681L41.641 65.9225L27.3546 89.2151L29.0594 90.2607ZM21.0585 91.1966C23.3887 93.4855 27.3513 93.0456 29.0594 90.2607L27.3546 89.2151C26.3343 90.8785 23.8944 91.1788 22.4599 89.7698L21.0585 91.1966ZM1.76046 72.2415L21.0585 91.1966L22.4599 89.7698L3.16194 70.8147L1.76046 72.2415ZM2.93536 64.4917C-0.00420721 66.0496 -0.616359 69.9069 1.76046 72.2415L3.16195 70.8147C1.77412 69.4515 2.09781 67.1991 3.87195 66.2588L2.93536 64.4917ZM29.0417 50.6553L2.93536 64.4917L3.87195 66.2588L29.9783 52.4224L29.0417 50.6553ZM1.10944 31.4373L28.9091 52.3381L30.111 50.7395L2.31131 29.8388L1.10944 31.4373ZM0.880269 23.8442C-1.54434 25.8748 -1.4173 29.5377 1.10944 31.4373L2.31131 29.8388C0.797089 28.7003 0.743332 26.5677 2.16442 25.3775L0.880269 23.8442ZM22.345 5.86708L0.880269 23.8442L2.16442 25.3775L23.6291 7.40036L22.345 5.86708ZM30.0525 7.09061C28.4246 4.44327 24.7284 3.87092 22.345 5.86708L23.6291 7.40036C25.0914 6.17568 27.3699 6.54633 28.3488 8.13824L30.0525 7.09061ZM44.4999 30.5851L30.0525 7.09061L28.3488 8.13824L42.7962 31.6327L44.4999 30.5851ZM38.4018 5.05155L42.661 31.2692L44.6351 30.9485L40.376 4.73085L38.4018 5.05155ZM43.5221 -0.758539C40.3686 -0.867043 37.8959 1.937 38.4018 5.05155L40.376 4.73085C40.0724 2.86201 41.558 1.17507 43.4533 1.24028L43.5221 -0.758539ZM72.0915 0.224459L43.5221 -0.758539L43.4533 1.24028L72.0227 2.22328L72.0915 0.224459ZM76.769 6.37755C77.5072 3.30567 75.249 0.3331 72.0915 0.224459L72.0227 2.22328C73.914 2.28835 75.2672 4.06723 74.8244 5.91025L76.769 6.37755ZM71.132 29.836L76.769 6.37755L74.8244 5.91025L69.1874 29.3687L71.132 29.836ZM85.5773 7.72289L69.3643 28.9962L70.955 30.2085L87.168 8.9352L85.5773 7.72289ZM93.3931 7.30095C91.2264 5.05242 87.4694 5.24019 85.5773 7.72289L87.168 8.9352C88.3051 7.44313 90.6231 7.30864 91.9529 8.6887L93.3931 7.30095ZM112.652 27.2878L93.3931 7.30095L91.9529 8.6887L111.212 28.6755L112.652 27.2878ZM111.584 34.8304C114.323 33.2226 114.857 29.5759 112.652 27.2878L111.212 28.6755C112.504 30.016 112.214 32.1415 110.572 33.1056L111.584 34.8304ZM81.3173 52.5985L111.584 34.8304L110.572 33.1056L80.3048 50.8737L81.3173 52.5985ZM80.2927 52.5912L107.317 68.974L108.354 67.2637L81.3295 50.881L80.2927 52.5912ZM107.317 68.974C109.027 70.0105 109.226 72.267 107.774 73.552L109.099 75.0496C111.585 72.8497 111.188 68.9821 108.354 67.2637L107.317 68.974ZM107.774 73.552L87.4085 91.5774L88.7341 93.075L109.099 75.0496L107.774 73.552ZM87.4085 91.5774C85.9086 92.9049 83.4974 92.4874 82.5579 90.7838L80.8065 91.7497C82.3787 94.6003 86.2967 95.2323 88.7341 93.075L87.4085 91.5774ZM82.5579 90.7838L66.6854 62.0039L64.9341 62.9698L80.8065 91.7497L82.5579 90.7838ZM68.4776 69.6789L66.7847 62.2643L64.8349 62.7095L66.5278 70.1241L68.4776 69.6789ZM69.0691 70.5398L68.3545 69.3777L66.6509 70.4253L67.3655 71.5874L69.0691 70.5398ZM69.4653 74.8381C70.0078 73.5349 69.9635 71.9943 69.0691 70.5398L67.3655 71.5874C67.9185 72.4867 67.918 73.3509 67.6189 74.0696L69.4653 74.8381Z" fill="#FF124D" mask="url(#path-1-inside-1_133_43)"/>
</svg>
