<svg width="102" height="97" viewBox="0 0 102 97" fill="none" xmlns="http://www.w3.org/2000/svg">
<path fill-rule="evenodd" clip-rule="evenodd" d="M60.4172 5.31519C59.058 -0.997311 50.0452 -0.96777 48.6858 5.35376L41.2638 39.8679L10.0965 20.2158C4.66966 16.7939 -1.64684 23.0828 1.79759 28.4783L32.6418 76.7942C32.7211 76.9185 32.8041 77.0388 32.8905 77.155C32.9647 77.2852 33.0395 77.415 33.1149 77.5449C33.2289 77.7412 33.3442 77.9375 33.461 78.1338C39.6496 88.5317 47.9199 95.4497 54.0815 96.054C55.369 96.6543 56.8817 97 58.5 97C60.3506 97 62.063 96.5479 63.4587 95.78C69.4049 94.2752 76.5109 86.6533 81.1975 75.9963C82.741 72.4866 83.8732 68.9858 84.5978 65.667L101.146 21.1038C103.38 15.0864 95.8089 10.3032 91.2377 14.844L67.5378 38.3865L60.4172 5.31519Z" fill="#944300" fill-opacity="0.85"/>
</svg>
