<svg width="113" height="108" viewBox="0 0 113 108" fill="none" xmlns="http://www.w3.org/2000/svg">
<path fill-rule="evenodd" clip-rule="evenodd" d="M63.4846 2.69527C62.805 -0.460982 58.2986 -0.446333 57.6189 2.71431L47.2639 50.8681L4.73741 24.0537C2.024 22.3427 -1.13427 25.4873 0.587963 28.185L39.0581 88.4467L39.2573 88.7895L39.461 89.1337C45.6497 99.5322 53.9202 106.45 60.0818 107.054C61.3693 107.654 62.8818 108 64.5 108C66.3509 108 68.0636 107.548 69.4594 106.78C75.4054 105.274 82.5111 97.6528 87.1975 86.996C88.7409 83.4863 89.8731 79.9863 90.5978 76.6674L111.882 19.3476C112.999 16.3388 109.214 13.9472 106.928 16.2177L73.5378 49.3862L63.4846 2.69527Z" fill="#BA7600"/>
</svg>
