<svg width="106" height="101" viewBox="0 0 106 101" fill="none" xmlns="http://www.w3.org/2000/svg">
<path fill-rule="evenodd" clip-rule="evenodd" d="M61.4397 4.77517C60.307 -0.485361 52.7963 -0.460672 51.6635 4.8073L43.2639 43.868L8.31014 21.8284C3.7878 18.9768 -1.476 24.2174 1.39437 28.7137L35.0554 81.4423C35.1887 81.673 35.3239 81.9035 35.461 82.1338C41.6496 92.5317 49.9198 99.4495 56.0813 100.054C57.3689 100.654 58.8817 101 60.5 101C62.3507 101 64.0632 100.548 65.4589 99.7798C71.405 98.2747 78.511 90.653 83.1975 79.9963C84.7409 76.4866 85.8732 72.9861 86.5978 69.6673L104.724 20.8516C106.586 15.8373 100.277 11.8512 96.4679 15.6352L69.5379 42.3865L61.4397 4.77517Z" fill="#C10404"/>
</svg>
