<svg width="106" height="101" viewBox="0 0 106 101" fill="none" xmlns="http://www.w3.org/2000/svg">
<path d="M51.6633 4.80713C52.7963 -0.460398 60.3067 -0.485083 61.4396 4.7749L69.5373 42.3862L96.468 15.6353C100.277 11.8512 106.587 15.8377 104.725 20.8521L86.5949 69.6724C85.8702 72.9896 84.74 76.4889 83.1974 79.9966C78.5101 90.655 71.402 98.2757 65.4553 99.7788C64.0601 100.546 62.3497 100.999 60.5002 101C58.8797 101 57.365 100.653 56.0764 100.051C49.9154 99.4436 41.6479 92.529 35.4611 82.1343C35.3251 81.9058 35.191 81.6766 35.0588 81.4478L1.39471 28.7144C-1.47559 24.2181 3.78744 18.9774 8.30975 21.8286L43.2629 43.8677L51.6633 4.80713Z" fill="#9E7C61"/>
</svg>
